<mxfile host="app.diagrams.net" modified="2024-10-21T00:00:00.000Z" agent="Codex-GPT" version="24.8.6">
  <diagram id="class-diagram" name="Class Diagram">
    <mxGraphModel dx="1422" dy="827" grid="1" gridSize="10" guides="1" tooltips="1" connect="1" arrows="1" fold="1" page="1" pageScale="1" pageWidth="1169" pageHeight="827" math="0" shadow="0">
      <root>
        <mxCell id="0"/>
        <mxCell id="1" parent="0"/>

        <mxCell id="FinanceManager" value="FinanceManager" style="rounded=0;whiteSpace=wrap;html=1;fontSize=14;fontStyle=1" vertex="1" parent="1">
          <mxGeometry x="430" y="200" width="180" height="70" as="geometry"/>
        </mxCell>

        <mxCell id="Account" value="Account&lt;&lt;abstract&gt;&gt;" style="rounded=0;whiteSpace=wrap;html=1;fontSize=13;fontStyle=3" vertex="1" parent="1">
          <mxGeometry x="140" y="60" width="180" height="70" as="geometry"/>
        </mxCell>

        <mxCell id="BankAccount" value="BankAccount" style="rounded=0;whiteSpace=wrap;html=1;fontSize=12" vertex="1" parent="1">
          <mxGeometry x="60" y="180" width="140" height="60" as="geometry"/>
        </mxCell>

        <mxCell id="EWalletAccount" value="EWalletAccount" style="rounded=0;whiteSpace=wrap;html=1;fontSize=12" vertex="1" parent="1">
          <mxGeometry x="220" y="180" width="140" height="60" as="geometry"/>
        </mxCell>

        <mxCell id="Ledger" value="Ledger" style="rounded=0;whiteSpace=wrap;html=1;fontSize=12" vertex="1" parent="1">
          <mxGeometry x="430" y="320" width="150" height="60" as="geometry"/>
        </mxCell>

        <mxCell id="Transaction" value="Transaction" style="rounded=0;whiteSpace=wrap;html=1;fontSize=12" vertex="1" parent="1">
          <mxGeometry x="280" y="320" width="140" height="60" as="geometry"/>
        </mxCell>

        <mxCell id="TransactionService" value="TransactionService" style="rounded=0;whiteSpace=wrap;html=1;fontSize=13;fontStyle=1" vertex="1" parent="1">
          <mxGeometry x="620" y="200" width="200" height="70" as="geometry"/>
        </mxCell>

        <mxCell id="DataStore" value="DataStore" style="rounded=0;whiteSpace=wrap;html=1;fontSize=13;fontStyle=1" vertex="1" parent="1">
          <mxGeometry x="820" y="80" width="180" height="70" as="geometry"/>
        </mxCell>

        <mxCell id="MenuAccount" value="MenuAccount" style="rounded=0;whiteSpace=wrap;html=1;fontSize=12" vertex="1" parent="1">
          <mxGeometry x="430" y="40" width="160" height="60" as="geometry"/>
        </mxCell>

        <mxCell id="Menutransaction" value="Menutransaction" style="rounded=0;whiteSpace=wrap;html=1;fontSize=12" vertex="1" parent="1">
          <mxGeometry x="660" y="40" width="160" height="60" as="geometry"/>
        </mxCell>

        <mxCell id="MenuPayment" value="MenuPayment" style="rounded=0;whiteSpace=wrap;html=1;fontSize=12" vertex="1" parent="1">
          <mxGeometry x="900" y="260" width="150" height="60" as="geometry"/>
        </mxCell>

        <mxCell id="PaymentAction" value="payment.Action" style="rounded=0;whiteSpace=wrap;html=1;fontSize=12" vertex="1" parent="1">
          <mxGeometry x="900" y="350" width="150" height="60" as="geometry"/>
        </mxCell>

        <mxCell id="IncomeExpenseReport" value="IncomeExpenseReport" style="rounded=0;whiteSpace=wrap;html=1;fontSize=12" vertex="1" parent="1">
          <mxGeometry x="1080" y="320" width="180" height="60" as="geometry"/>
        </mxCell>

        <mxCell id="LoanReport" value="LoanReport" style="rounded=0;whiteSpace=wrap;html=1;fontSize=12" vertex="1" parent="1">
          <mxGeometry x="1080" y="400" width="180" height="60" as="geometry"/>
        </mxCell>

        <mxCell id="AccountReport" value="AccountReport" style="rounded=0;whiteSpace=wrap;html=1;fontSize=12" vertex="1" parent="1">
          <mxGeometry x="1080" y="240" width="180" height="60" as="geometry"/>
        </mxCell>

        <mxCell id="TransferService" value="TransferService" style="rounded=0;whiteSpace=wrap;html=1;fontSize=12" vertex="1" parent="1">
          <mxGeometry x="430" y="400" width="160" height="60" as="geometry"/>
        </mxCell>

        <mxCell id="AccountActions" value="AccountActions" style="rounded=0;whiteSpace=wrap;html=1;fontSize=12" vertex="1" parent="1">
          <mxGeometry x="300" y="40" width="120" height="60" as="geometry"/>
        </mxCell>

        <!-- Inheritance edges -->
        <mxCell id="edge-Account-Bank" style="endArrow=block;endFill=0;html=1;strokeWidth=1.5" edge="1" parent="1" source="BankAccount" target="Account">
          <mxGeometry relative="1" as="geometry"/>
        </mxCell>

        <mxCell id="edge-Account-EWallet" style="endArrow=block;endFill=0;html=1;strokeWidth=1.5" edge="1" parent="1" source="EWalletAccount" target="Account">
          <mxGeometry relative="1" as="geometry"/>
        </mxCell>

        <!-- Associations -->
        <mxCell id="edge-FM-Account" style="endArrow=block;html=1;strokeWidth=1.5" edge="1" parent="1" source="FinanceManager" target="Account">
          <mxGeometry relative="1" as="geometry"/>
        </mxCell>

        <mxCell id="edge-FM-Ledger" style="endArrow=block;html=1;strokeWidth=1.5" edge="1" parent="1" source="FinanceManager" target="Ledger">
          <mxGeometry relative="1" as="geometry"/>
        </mxCell>

        <mxCell id="edge-Ledger-Transaction" style="endArrow=block;html=1;strokeWidth=1.5" edge="1" parent="1" source="Ledger" target="Transaction">
          <mxGeometry relative="1" as="geometry"/>
        </mxCell>

        <mxCell id="edge-FM-TransferService" style="endArrow=block;html=1;strokeWidth=1.5" edge="1" parent="1" source="FinanceManager" target="TransferService">
          <mxGeometry relative="1" as="geometry"/>
        </mxCell>

        <mxCell id="edge-TS-FM" style="endArrow=block;html=1;strokeWidth=1.5" edge="1" parent="1" source="TransactionService" target="FinanceManager">
          <mxGeometry relative="1" as="geometry"/>
        </mxCell>

        <mxCell id="edge-TS-Ledger" style="endArrow=block;html=1;strokeWidth=1.5" edge="1" parent="1" source="TransactionService" target="Ledger">
          <mxGeometry relative="1" as="geometry"/>
        </mxCell>

        <mxCell id="edge-TS-DataStore" style="endArrow=block;html=1;strokeWidth=1.5" edge="1" parent="1" source="TransactionService" target="DataStore">
          <mxGeometry relative="1" as="geometry"/>
        </mxCell>

        <mxCell id="edge-MenuAccount-FM" style="endArrow=block;html=1;dashed=1" edge="1" parent="1" source="MenuAccount" target="FinanceManager">
          <mxGeometry relative="1" as="geometry"/>
        </mxCell>

        <mxCell id="edge-AccountActions-FM" style="endArrow=block;html=1;dashed=1" edge="1" parent="1" source="AccountActions" target="FinanceManager">
          <mxGeometry relative="1" as="geometry"/>
        </mxCell>

        <mxCell id="edge-MenuTran-TS" style="endArrow=block;html=1;dashed=1" edge="1" parent="1" source="Menutransaction" target="TransactionService">
          <mxGeometry relative="1" as="geometry"/>
        </mxCell>

        <mxCell id="edge-MenuPayment-Action" style="endArrow=block;html=1;dashed=1" edge="1" parent="1" source="MenuPayment" target="PaymentAction">
          <mxGeometry relative="1" as="geometry"/>
        </mxCell>

        <mxCell id="edge-Action-IE" style="endArrow=block;html=1;strokeWidth=1.5" edge="1" parent="1" source="PaymentAction" target="IncomeExpenseReport">
          <mxGeometry relative="1" as="geometry"/>
        </mxCell>

        <mxCell id="edge-Action-LR" style="endArrow=block;html=1;strokeWidth=1.5" edge="1" parent="1" source="PaymentAction" target="LoanReport">
          <mxGeometry relative="1" as="geometry"/>
        </mxCell>

        <mxCell id="edge-Action-AR" style="endArrow=block;html=1;strokeWidth=1.5" edge="1" parent="1" source="PaymentAction" target="AccountReport">
          <mxGeometry relative="1" as="geometry"/>
        </mxCell>

        <mxCell id="edge-Reports-DataStore" style="endArrow=block;html=1;strokeWidth=1.5" edge="1" parent="1" source="IncomeExpenseReport" target="DataStore">
          <mxGeometry relative="1" as="geometry"/>
        </mxCell>

        <mxCell id="edge-LoanReport-DS" style="endArrow=block;html=1;strokeWidth=1.5" edge="1" parent="1" source="LoanReport" target="DataStore">
          <mxGeometry relative="1" as="geometry"/>
        </mxCell>

        <mxCell id="edge-AccountReport-DS" style="endArrow=block;html=1;strokeWidth=1.5" edge="1" parent="1" source="AccountReport" target="DataStore">
          <mxGeometry relative="1" as="geometry"/>
        </mxCell>

      </root>
    </mxGraphModel>
  </diagram>
</mxfile>
